<svg xmlns="http://www.w3.org/2000/svg" xmlns:xlink="http://www.w3.org/1999/xlink" width="37" height="43" viewBox="0 0 37 43">
  <defs>
    <clipPath id="clip-food_icon">
      <rect width="37" height="43"/>
    </clipPath>
  </defs>
  <g id="food_icon" clip-path="url(#clip-food_icon)">
    <path id="utensils-solid" d="M16.9,1.234a99.4,99.4,0,0,1,1.309,10.472,8.572,8.572,0,0,1-5.6,8.5l1.049,19.358a1.956,1.956,0,0,1-1.951,2.057H6.5a1.956,1.956,0,0,1-1.951-2.057L5.6,20.21c-3.35-1.22-5.6-4.26-5.6-8.5A99.11,99.11,0,0,1,1.309,1.234C1.569-.416,4.992-.44,5.2,1.324V12.8c.106.276,1.228.26,1.3,0,.114-2.057.642-11.317.65-11.529.268-1.691,3.634-1.691,3.894,0,.016.22.537,9.472.65,11.529.073.26,1.2.276,1.3,0V1.324c.211-1.756,3.642-1.74,3.9-.089Zm9.691,23.228-1.22,15.049a1.951,1.951,0,0,0,1.943,2.114H31.87a1.947,1.947,0,0,0,1.951-1.951V1.95A1.952,1.952,0,0,0,31.87,0c-6.707,0-18,14.512-5.276,24.464Z" transform="translate(1.179 0.62)" fill="#a8c8ff"/>
  </g>
</svg>
